<mxfile host="app.diagrams.net" agent="Mozilla/5.0 (Windows NT 10.0; Win64; x64) AppleWebKit/537.36 (KHTML, like Gecko) Chrome/136.0.0.0 Safari/537.36" version="27.0.6">
  <diagram name="Page-1" id="8GOD23iKSQqQfZtJJ0CQ">
    <mxGraphModel grid="1" page="1" gridSize="10" guides="1" tooltips="1" connect="1" arrows="1" fold="1" pageScale="1" pageWidth="3000" pageHeight="3000" math="0" shadow="0">
      <root>
        <mxCell id="0" />
        <mxCell id="1" parent="0" />
        <mxCell id="D5Iztg6HRzffPRHHJvHE-1" style="edgeStyle=orthogonalEdgeStyle;rounded=0;orthogonalLoop=1;jettySize=auto;html=1;entryX=0.5;entryY=0;entryDx=0;entryDy=0;" edge="1" parent="1" source="D5Iztg6HRzffPRHHJvHE-2" target="D5Iztg6HRzffPRHHJvHE-4">
          <mxGeometry relative="1" as="geometry" />
        </mxCell>
        <mxCell id="D5Iztg6HRzffPRHHJvHE-2" value="Mulai" style="strokeWidth=2;html=1;shape=mxgraph.flowchart.terminator;whiteSpace=wrap;" vertex="1" parent="1">
          <mxGeometry x="240" y="327" width="140" height="60" as="geometry" />
        </mxCell>
        <mxCell id="D5Iztg6HRzffPRHHJvHE-3" style="edgeStyle=orthogonalEdgeStyle;rounded=0;orthogonalLoop=1;jettySize=auto;html=1;entryX=0.5;entryY=0;entryDx=0;entryDy=0;" edge="1" parent="1" source="D5Iztg6HRzffPRHHJvHE-4" target="D5Iztg6HRzffPRHHJvHE-5">
          <mxGeometry relative="1" as="geometry" />
        </mxCell>
        <mxCell id="D5Iztg6HRzffPRHHJvHE-4" value="Login" style="rounded=1;whiteSpace=wrap;html=1;absoluteArcSize=1;arcSize=14;strokeWidth=2;" vertex="1" parent="1">
          <mxGeometry x="247" y="437" width="126" height="60" as="geometry" />
        </mxCell>
        <mxCell id="D5Iztg6HRzffPRHHJvHE-5" value="Username dan&lt;div&gt;&lt;span style=&quot;background-color: transparent; color: light-dark(rgb(0, 0, 0), rgb(255, 255, 255));&quot;&gt;Password&lt;/span&gt;&lt;/div&gt;" style="shape=parallelogram;html=1;strokeWidth=2;perimeter=parallelogramPerimeter;whiteSpace=wrap;rounded=1;arcSize=12;size=0.23;" vertex="1" parent="1">
          <mxGeometry x="240" y="547" width="140" height="60" as="geometry" />
        </mxCell>
        <mxCell id="D5Iztg6HRzffPRHHJvHE-6" style="edgeStyle=orthogonalEdgeStyle;rounded=0;orthogonalLoop=1;jettySize=auto;html=1;entryX=0.5;entryY=0;entryDx=0;entryDy=0;" edge="1" parent="1" source="D5Iztg6HRzffPRHHJvHE-8" target="D5Iztg6HRzffPRHHJvHE-11">
          <mxGeometry relative="1" as="geometry" />
        </mxCell>
        <mxCell id="D5Iztg6HRzffPRHHJvHE-7" style="edgeStyle=orthogonalEdgeStyle;rounded=0;orthogonalLoop=1;jettySize=auto;html=1;entryX=1;entryY=0.5;entryDx=0;entryDy=0;" edge="1" parent="1" source="D5Iztg6HRzffPRHHJvHE-8" target="D5Iztg6HRzffPRHHJvHE-5">
          <mxGeometry relative="1" as="geometry">
            <mxPoint x="390" y="567" as="targetPoint" />
            <Array as="points">
              <mxPoint x="430" y="687" />
              <mxPoint x="430" y="577" />
            </Array>
          </mxGeometry>
        </mxCell>
        <mxCell id="D5Iztg6HRzffPRHHJvHE-8" value="Valid?" style="strokeWidth=2;html=1;shape=mxgraph.flowchart.decision;whiteSpace=wrap;" vertex="1" parent="1">
          <mxGeometry x="260" y="637" width="100" height="100" as="geometry" />
        </mxCell>
        <mxCell id="D5Iztg6HRzffPRHHJvHE-9" style="edgeStyle=orthogonalEdgeStyle;rounded=0;orthogonalLoop=1;jettySize=auto;html=1;entryX=0.5;entryY=0;entryDx=0;entryDy=0;entryPerimeter=0;" edge="1" parent="1" source="D5Iztg6HRzffPRHHJvHE-5" target="D5Iztg6HRzffPRHHJvHE-8">
          <mxGeometry relative="1" as="geometry" />
        </mxCell>
        <mxCell id="D5Iztg6HRzffPRHHJvHE-10" style="edgeStyle=orthogonalEdgeStyle;rounded=0;orthogonalLoop=1;jettySize=auto;html=1;entryX=0.5;entryY=0;entryDx=0;entryDy=0;" edge="1" parent="1" source="D5Iztg6HRzffPRHHJvHE-11" target="D5Iztg6HRzffPRHHJvHE-13">
          <mxGeometry relative="1" as="geometry" />
        </mxCell>
        <mxCell id="D5Iztg6HRzffPRHHJvHE-11" value="Dashboard Admin" style="rounded=1;whiteSpace=wrap;html=1;absoluteArcSize=1;arcSize=14;strokeWidth=2;" vertex="1" parent="1">
          <mxGeometry x="247" y="767" width="126" height="60" as="geometry" />
        </mxCell>
        <mxCell id="D5Iztg6HRzffPRHHJvHE-12" style="edgeStyle=orthogonalEdgeStyle;rounded=0;orthogonalLoop=1;jettySize=auto;html=1;" edge="1" parent="1" source="D5Iztg6HRzffPRHHJvHE-13">
          <mxGeometry relative="1" as="geometry">
            <mxPoint x="310" y="977" as="targetPoint" />
          </mxGeometry>
        </mxCell>
        <mxCell id="D5Iztg6HRzffPRHHJvHE-13" value="" style="verticalLabelPosition=bottom;verticalAlign=top;html=1;shape=process;whiteSpace=wrap;rounded=1;size=0.14;arcSize=6;" vertex="1" parent="1">
          <mxGeometry x="220" y="857" width="180" height="90" as="geometry" />
        </mxCell>
        <mxCell id="D5Iztg6HRzffPRHHJvHE-14" value="1. Kelola sarana/barang&lt;div&gt;2. Approval peminjaman&lt;/div&gt;&lt;div&gt;3. Approval pengembalian&lt;/div&gt;" style="text;strokeColor=none;align=left;fillColor=none;html=1;verticalAlign=middle;whiteSpace=wrap;rounded=0;" vertex="1" parent="1">
          <mxGeometry x="247" y="867" width="133" height="70" as="geometry" />
        </mxCell>
        <mxCell id="D5Iztg6HRzffPRHHJvHE-15" value="Ya" style="text;strokeColor=none;align=center;fillColor=none;html=1;verticalAlign=middle;whiteSpace=wrap;rounded=0;" vertex="1" parent="1">
          <mxGeometry x="313" y="727" width="60" height="30" as="geometry" />
        </mxCell>
        <mxCell id="D5Iztg6HRzffPRHHJvHE-16" value="Tidak" style="text;strokeColor=none;align=center;fillColor=none;html=1;verticalAlign=middle;whiteSpace=wrap;rounded=0;" vertex="1" parent="1">
          <mxGeometry x="430" y="627" width="60" height="30" as="geometry" />
        </mxCell>
        <mxCell id="D5Iztg6HRzffPRHHJvHE-17" style="edgeStyle=orthogonalEdgeStyle;rounded=0;orthogonalLoop=1;jettySize=auto;html=1;entryX=1;entryY=0.5;entryDx=0;entryDy=0;" edge="1" parent="1" target="D5Iztg6HRzffPRHHJvHE-13">
          <mxGeometry relative="1" as="geometry">
            <mxPoint x="440" y="902" as="sourcePoint" />
          </mxGeometry>
        </mxCell>
        <mxCell id="D5Iztg6HRzffPRHHJvHE-18" value="&lt;font style=&quot;font-size: 30px;&quot;&gt;Admin&lt;/font&gt;" style="text;strokeColor=none;align=center;fillColor=none;html=1;verticalAlign=middle;whiteSpace=wrap;rounded=0;" vertex="1" parent="1">
          <mxGeometry x="280" y="259" width="60" height="30" as="geometry" />
        </mxCell>
        <mxCell id="D5Iztg6HRzffPRHHJvHE-19" value="" style="verticalLabelPosition=bottom;verticalAlign=top;html=1;shape=mxgraph.flowchart.on-page_reference;" vertex="1" parent="1">
          <mxGeometry x="280" y="977" width="60" height="60" as="geometry" />
        </mxCell>
        <mxCell id="D5Iztg6HRzffPRHHJvHE-20" value="A" style="text;strokeColor=none;align=center;fillColor=none;html=1;verticalAlign=middle;whiteSpace=wrap;rounded=0;" vertex="1" parent="1">
          <mxGeometry x="280" y="992" width="60" height="30" as="geometry" />
        </mxCell>
        <mxCell id="D5Iztg6HRzffPRHHJvHE-21" value="" style="verticalLabelPosition=bottom;verticalAlign=top;html=1;shape=mxgraph.flowchart.on-page_reference;" vertex="1" parent="1">
          <mxGeometry x="440" y="872" width="60" height="60" as="geometry" />
        </mxCell>
        <mxCell id="D5Iztg6HRzffPRHHJvHE-22" value="B, C, D, H" style="text;strokeColor=none;align=center;fillColor=none;html=1;verticalAlign=middle;whiteSpace=wrap;rounded=0;" vertex="1" parent="1">
          <mxGeometry x="440" y="887" width="60" height="30" as="geometry" />
        </mxCell>
        <mxCell id="D5Iztg6HRzffPRHHJvHE-23" value="" style="verticalLabelPosition=bottom;verticalAlign=top;html=1;shape=mxgraph.flowchart.on-page_reference;" vertex="1" parent="1">
          <mxGeometry x="670" y="327" width="60" height="60" as="geometry" />
        </mxCell>
        <mxCell id="D5Iztg6HRzffPRHHJvHE-24" value="A" style="text;strokeColor=none;align=center;fillColor=none;html=1;verticalAlign=middle;whiteSpace=wrap;rounded=0;" vertex="1" parent="1">
          <mxGeometry x="670" y="342" width="60" height="30" as="geometry" />
        </mxCell>
        <mxCell id="D5Iztg6HRzffPRHHJvHE-25" style="edgeStyle=orthogonalEdgeStyle;rounded=0;orthogonalLoop=1;jettySize=auto;html=1;entryX=0.5;entryY=0;entryDx=0;entryDy=0;" edge="1" parent="1">
          <mxGeometry relative="1" as="geometry">
            <mxPoint x="700" y="388" as="sourcePoint" />
            <mxPoint x="700" y="438" as="targetPoint" />
          </mxGeometry>
        </mxCell>
        <mxCell id="D5Iztg6HRzffPRHHJvHE-26" style="edgeStyle=orthogonalEdgeStyle;rounded=0;orthogonalLoop=1;jettySize=auto;html=1;entryX=0;entryY=0.5;entryDx=0;entryDy=0;" edge="1" parent="1" source="D5Iztg6HRzffPRHHJvHE-27" target="D5Iztg6HRzffPRHHJvHE-32">
          <mxGeometry relative="1" as="geometry" />
        </mxCell>
        <mxCell id="D5Iztg6HRzffPRHHJvHE-27" value="Kelola sarana/barang?" style="strokeWidth=2;html=1;shape=mxgraph.flowchart.decision;whiteSpace=wrap;" vertex="1" parent="1">
          <mxGeometry x="650" y="443" width="100" height="100" as="geometry" />
        </mxCell>
        <mxCell id="D5Iztg6HRzffPRHHJvHE-28" style="edgeStyle=orthogonalEdgeStyle;rounded=0;orthogonalLoop=1;jettySize=auto;html=1;entryX=0.5;entryY=0;entryDx=0;entryDy=0;entryPerimeter=0;" edge="1" parent="1" source="D5Iztg6HRzffPRHHJvHE-27">
          <mxGeometry relative="1" as="geometry">
            <mxPoint x="700" y="588.9999999999998" as="targetPoint" />
          </mxGeometry>
        </mxCell>
        <mxCell id="D5Iztg6HRzffPRHHJvHE-29" value="Tidak" style="text;strokeColor=none;align=center;fillColor=none;html=1;verticalAlign=middle;whiteSpace=wrap;rounded=0;" vertex="1" parent="1">
          <mxGeometry x="700" y="549" width="60" height="30" as="geometry" />
        </mxCell>
        <mxCell id="D5Iztg6HRzffPRHHJvHE-30" value="Ya" style="text;strokeColor=none;align=center;fillColor=none;html=1;verticalAlign=middle;whiteSpace=wrap;rounded=0;" vertex="1" parent="1">
          <mxGeometry x="740" y="499" width="60" height="30" as="geometry" />
        </mxCell>
        <mxCell id="D5Iztg6HRzffPRHHJvHE-31" style="edgeStyle=orthogonalEdgeStyle;rounded=0;orthogonalLoop=1;jettySize=auto;html=1;entryX=0;entryY=0.5;entryDx=0;entryDy=0;" edge="1" parent="1" source="D5Iztg6HRzffPRHHJvHE-32" target="D5Iztg6HRzffPRHHJvHE-33">
          <mxGeometry relative="1" as="geometry" />
        </mxCell>
        <mxCell id="D5Iztg6HRzffPRHHJvHE-32" value="Page kelola sarana/barang" style="rounded=1;whiteSpace=wrap;html=1;absoluteArcSize=1;arcSize=14;strokeWidth=2;" vertex="1" parent="1">
          <mxGeometry x="800" y="463" width="126" height="60" as="geometry" />
        </mxCell>
        <mxCell id="D5Iztg6HRzffPRHHJvHE-33" value="CRUD sarana/barang" style="rounded=1;whiteSpace=wrap;html=1;absoluteArcSize=1;arcSize=14;strokeWidth=2;" vertex="1" parent="1">
          <mxGeometry x="980" y="463" width="126" height="60" as="geometry" />
        </mxCell>
        <mxCell id="D5Iztg6HRzffPRHHJvHE-34" style="edgeStyle=orthogonalEdgeStyle;rounded=0;orthogonalLoop=1;jettySize=auto;html=1;entryX=0;entryY=0.5;entryDx=0;entryDy=0;entryPerimeter=0;" edge="1" parent="1" source="D5Iztg6HRzffPRHHJvHE-33">
          <mxGeometry relative="1" as="geometry">
            <mxPoint x="1150" y="493" as="targetPoint" />
          </mxGeometry>
        </mxCell>
        <mxCell id="D5Iztg6HRzffPRHHJvHE-35" value="" style="verticalLabelPosition=bottom;verticalAlign=top;html=1;shape=mxgraph.flowchart.on-page_reference;" vertex="1" parent="1">
          <mxGeometry x="1150" y="463" width="60" height="60" as="geometry" />
        </mxCell>
        <mxCell id="D5Iztg6HRzffPRHHJvHE-36" value="B" style="text;strokeColor=none;align=center;fillColor=none;html=1;verticalAlign=middle;whiteSpace=wrap;rounded=0;" vertex="1" parent="1">
          <mxGeometry x="1150" y="478" width="60" height="30" as="geometry" />
        </mxCell>
        <mxCell id="D5Iztg6HRzffPRHHJvHE-37" style="edgeStyle=orthogonalEdgeStyle;rounded=0;orthogonalLoop=1;jettySize=auto;html=1;entryX=0;entryY=0.5;entryDx=0;entryDy=0;" edge="1" parent="1" source="D5Iztg6HRzffPRHHJvHE-38" target="D5Iztg6HRzffPRHHJvHE-43">
          <mxGeometry relative="1" as="geometry" />
        </mxCell>
        <mxCell id="D5Iztg6HRzffPRHHJvHE-38" value="Approval Peminjaman" style="strokeWidth=2;html=1;shape=mxgraph.flowchart.decision;whiteSpace=wrap;" vertex="1" parent="1">
          <mxGeometry x="650" y="591" width="100" height="100" as="geometry" />
        </mxCell>
        <mxCell id="D5Iztg6HRzffPRHHJvHE-39" style="edgeStyle=orthogonalEdgeStyle;rounded=0;orthogonalLoop=1;jettySize=auto;html=1;entryX=0.5;entryY=0;entryDx=0;entryDy=0;entryPerimeter=0;" edge="1" parent="1" source="D5Iztg6HRzffPRHHJvHE-38">
          <mxGeometry relative="1" as="geometry">
            <mxPoint x="700" y="737" as="targetPoint" />
          </mxGeometry>
        </mxCell>
        <mxCell id="D5Iztg6HRzffPRHHJvHE-40" value="Tidak" style="text;strokeColor=none;align=center;fillColor=none;html=1;verticalAlign=middle;whiteSpace=wrap;rounded=0;" vertex="1" parent="1">
          <mxGeometry x="700" y="697" width="60" height="30" as="geometry" />
        </mxCell>
        <mxCell id="D5Iztg6HRzffPRHHJvHE-41" value="Ya" style="text;strokeColor=none;align=center;fillColor=none;html=1;verticalAlign=middle;whiteSpace=wrap;rounded=0;" vertex="1" parent="1">
          <mxGeometry x="740" y="647" width="60" height="30" as="geometry" />
        </mxCell>
        <mxCell id="D5Iztg6HRzffPRHHJvHE-42" style="edgeStyle=orthogonalEdgeStyle;rounded=0;orthogonalLoop=1;jettySize=auto;html=1;entryX=0;entryY=0.5;entryDx=0;entryDy=0;" edge="1" parent="1" source="D5Iztg6HRzffPRHHJvHE-43" target="D5Iztg6HRzffPRHHJvHE-44">
          <mxGeometry relative="1" as="geometry" />
        </mxCell>
        <mxCell id="D5Iztg6HRzffPRHHJvHE-43" value="Page Approval Peminjaman" style="rounded=1;whiteSpace=wrap;html=1;absoluteArcSize=1;arcSize=14;strokeWidth=2;" vertex="1" parent="1">
          <mxGeometry x="800" y="611" width="126" height="60" as="geometry" />
        </mxCell>
        <mxCell id="D5Iztg6HRzffPRHHJvHE-44" value="READ, UPDATE Peminjaman" style="rounded=1;whiteSpace=wrap;html=1;absoluteArcSize=1;arcSize=14;strokeWidth=2;" vertex="1" parent="1">
          <mxGeometry x="980" y="611" width="126" height="60" as="geometry" />
        </mxCell>
        <mxCell id="D5Iztg6HRzffPRHHJvHE-45" style="edgeStyle=orthogonalEdgeStyle;rounded=0;orthogonalLoop=1;jettySize=auto;html=1;entryX=0;entryY=0.5;entryDx=0;entryDy=0;entryPerimeter=0;" edge="1" parent="1" source="D5Iztg6HRzffPRHHJvHE-44">
          <mxGeometry relative="1" as="geometry">
            <mxPoint x="1150" y="641" as="targetPoint" />
          </mxGeometry>
        </mxCell>
        <mxCell id="D5Iztg6HRzffPRHHJvHE-46" value="" style="verticalLabelPosition=bottom;verticalAlign=top;html=1;shape=mxgraph.flowchart.on-page_reference;" vertex="1" parent="1">
          <mxGeometry x="1150" y="611" width="60" height="60" as="geometry" />
        </mxCell>
        <mxCell id="D5Iztg6HRzffPRHHJvHE-47" value="C" style="text;strokeColor=none;align=center;fillColor=none;html=1;verticalAlign=middle;whiteSpace=wrap;rounded=0;" vertex="1" parent="1">
          <mxGeometry x="1150" y="626" width="60" height="30" as="geometry" />
        </mxCell>
        <mxCell id="D5Iztg6HRzffPRHHJvHE-48" style="edgeStyle=orthogonalEdgeStyle;rounded=0;orthogonalLoop=1;jettySize=auto;html=1;entryX=0;entryY=0.5;entryDx=0;entryDy=0;" edge="1" parent="1" source="D5Iztg6HRzffPRHHJvHE-49" target="D5Iztg6HRzffPRHHJvHE-54">
          <mxGeometry relative="1" as="geometry" />
        </mxCell>
        <mxCell id="D5Iztg6HRzffPRHHJvHE-49" value="Approval Pengembalian" style="strokeWidth=2;html=1;shape=mxgraph.flowchart.decision;whiteSpace=wrap;" vertex="1" parent="1">
          <mxGeometry x="650" y="741" width="100" height="100" as="geometry" />
        </mxCell>
        <mxCell id="D5Iztg6HRzffPRHHJvHE-50" style="edgeStyle=orthogonalEdgeStyle;rounded=0;orthogonalLoop=1;jettySize=auto;html=1;entryX=0.5;entryY=0;entryDx=0;entryDy=0;entryPerimeter=0;" edge="1" parent="1" source="D5Iztg6HRzffPRHHJvHE-49">
          <mxGeometry relative="1" as="geometry">
            <mxPoint x="700" y="887" as="targetPoint" />
          </mxGeometry>
        </mxCell>
        <mxCell id="D5Iztg6HRzffPRHHJvHE-51" value="Tidak" style="text;strokeColor=none;align=center;fillColor=none;html=1;verticalAlign=middle;whiteSpace=wrap;rounded=0;" vertex="1" parent="1">
          <mxGeometry x="700" y="847" width="60" height="30" as="geometry" />
        </mxCell>
        <mxCell id="D5Iztg6HRzffPRHHJvHE-52" value="Ya" style="text;strokeColor=none;align=center;fillColor=none;html=1;verticalAlign=middle;whiteSpace=wrap;rounded=0;" vertex="1" parent="1">
          <mxGeometry x="740" y="797" width="60" height="30" as="geometry" />
        </mxCell>
        <mxCell id="D5Iztg6HRzffPRHHJvHE-53" style="edgeStyle=orthogonalEdgeStyle;rounded=0;orthogonalLoop=1;jettySize=auto;html=1;entryX=0;entryY=0.5;entryDx=0;entryDy=0;" edge="1" parent="1" source="D5Iztg6HRzffPRHHJvHE-54" target="D5Iztg6HRzffPRHHJvHE-55">
          <mxGeometry relative="1" as="geometry" />
        </mxCell>
        <mxCell id="D5Iztg6HRzffPRHHJvHE-54" value="Page Approval Pengembalian" style="rounded=1;whiteSpace=wrap;html=1;absoluteArcSize=1;arcSize=14;strokeWidth=2;" vertex="1" parent="1">
          <mxGeometry x="800" y="761" width="126" height="60" as="geometry" />
        </mxCell>
        <mxCell id="D5Iztg6HRzffPRHHJvHE-55" value="READ, UPDATE Pengembalian" style="rounded=1;whiteSpace=wrap;html=1;absoluteArcSize=1;arcSize=14;strokeWidth=2;" vertex="1" parent="1">
          <mxGeometry x="980" y="761" width="126" height="60" as="geometry" />
        </mxCell>
        <mxCell id="D5Iztg6HRzffPRHHJvHE-56" style="edgeStyle=orthogonalEdgeStyle;rounded=0;orthogonalLoop=1;jettySize=auto;html=1;entryX=0;entryY=0.5;entryDx=0;entryDy=0;entryPerimeter=0;" edge="1" parent="1" source="D5Iztg6HRzffPRHHJvHE-55">
          <mxGeometry relative="1" as="geometry">
            <mxPoint x="1150" y="791" as="targetPoint" />
          </mxGeometry>
        </mxCell>
        <mxCell id="D5Iztg6HRzffPRHHJvHE-57" value="" style="verticalLabelPosition=bottom;verticalAlign=top;html=1;shape=mxgraph.flowchart.on-page_reference;" vertex="1" parent="1">
          <mxGeometry x="1150" y="761" width="60" height="60" as="geometry" />
        </mxCell>
        <mxCell id="D5Iztg6HRzffPRHHJvHE-58" value="D" style="text;strokeColor=none;align=center;fillColor=none;html=1;verticalAlign=middle;whiteSpace=wrap;rounded=0;" vertex="1" parent="1">
          <mxGeometry x="1150" y="776" width="60" height="30" as="geometry" />
        </mxCell>
        <mxCell id="D5Iztg6HRzffPRHHJvHE-59" value="Logout" style="rounded=1;whiteSpace=wrap;html=1;absoluteArcSize=1;arcSize=14;strokeWidth=2;" vertex="1" parent="1">
          <mxGeometry x="637" y="1050" width="126" height="60" as="geometry" />
        </mxCell>
        <mxCell id="D5Iztg6HRzffPRHHJvHE-60" value="Selesai" style="strokeWidth=2;html=1;shape=mxgraph.flowchart.terminator;whiteSpace=wrap;" vertex="1" parent="1">
          <mxGeometry x="630" y="1145" width="140" height="60" as="geometry" />
        </mxCell>
        <mxCell id="D5Iztg6HRzffPRHHJvHE-61" style="edgeStyle=orthogonalEdgeStyle;rounded=0;orthogonalLoop=1;jettySize=auto;html=1;entryX=0.5;entryY=0;entryDx=0;entryDy=0;entryPerimeter=0;" edge="1" parent="1" source="D5Iztg6HRzffPRHHJvHE-59" target="D5Iztg6HRzffPRHHJvHE-60">
          <mxGeometry relative="1" as="geometry" />
        </mxCell>
        <mxCell id="D5Iztg6HRzffPRHHJvHE-62" style="edgeStyle=orthogonalEdgeStyle;rounded=0;orthogonalLoop=1;jettySize=auto;html=1;entryX=0.5;entryY=0;entryDx=0;entryDy=0;" edge="1" parent="1" source="D5Iztg6HRzffPRHHJvHE-63" target="D5Iztg6HRzffPRHHJvHE-65">
          <mxGeometry relative="1" as="geometry" />
        </mxCell>
        <mxCell id="D5Iztg6HRzffPRHHJvHE-63" value="Mulai" style="strokeWidth=2;html=1;shape=mxgraph.flowchart.terminator;whiteSpace=wrap;" vertex="1" parent="1">
          <mxGeometry x="1380" y="256" width="140" height="60" as="geometry" />
        </mxCell>
        <mxCell id="D5Iztg6HRzffPRHHJvHE-64" style="edgeStyle=orthogonalEdgeStyle;rounded=0;orthogonalLoop=1;jettySize=auto;html=1;entryX=0.5;entryY=0;entryDx=0;entryDy=0;" edge="1" parent="1" source="D5Iztg6HRzffPRHHJvHE-65" target="D5Iztg6HRzffPRHHJvHE-66">
          <mxGeometry relative="1" as="geometry" />
        </mxCell>
        <mxCell id="D5Iztg6HRzffPRHHJvHE-65" value="Login" style="rounded=1;whiteSpace=wrap;html=1;absoluteArcSize=1;arcSize=14;strokeWidth=2;" vertex="1" parent="1">
          <mxGeometry x="1387" y="366" width="126" height="60" as="geometry" />
        </mxCell>
        <mxCell id="D5Iztg6HRzffPRHHJvHE-66" value="Username dan&lt;div&gt;&lt;span style=&quot;background-color: transparent; color: light-dark(rgb(0, 0, 0), rgb(255, 255, 255));&quot;&gt;Password&lt;/span&gt;&lt;/div&gt;" style="shape=parallelogram;html=1;strokeWidth=2;perimeter=parallelogramPerimeter;whiteSpace=wrap;rounded=1;arcSize=12;size=0.23;" vertex="1" parent="1">
          <mxGeometry x="1380" y="476" width="140" height="60" as="geometry" />
        </mxCell>
        <mxCell id="D5Iztg6HRzffPRHHJvHE-67" style="edgeStyle=orthogonalEdgeStyle;rounded=0;orthogonalLoop=1;jettySize=auto;html=1;entryX=0.5;entryY=0;entryDx=0;entryDy=0;" edge="1" parent="1" source="D5Iztg6HRzffPRHHJvHE-69" target="D5Iztg6HRzffPRHHJvHE-72">
          <mxGeometry relative="1" as="geometry" />
        </mxCell>
        <mxCell id="D5Iztg6HRzffPRHHJvHE-68" style="edgeStyle=orthogonalEdgeStyle;rounded=0;orthogonalLoop=1;jettySize=auto;html=1;entryX=1;entryY=0.5;entryDx=0;entryDy=0;" edge="1" parent="1" source="D5Iztg6HRzffPRHHJvHE-69" target="D5Iztg6HRzffPRHHJvHE-66">
          <mxGeometry relative="1" as="geometry">
            <mxPoint x="1530" y="496" as="targetPoint" />
            <Array as="points">
              <mxPoint x="1570" y="616" />
              <mxPoint x="1570" y="506" />
            </Array>
          </mxGeometry>
        </mxCell>
        <mxCell id="D5Iztg6HRzffPRHHJvHE-69" value="Valid?" style="strokeWidth=2;html=1;shape=mxgraph.flowchart.decision;whiteSpace=wrap;" vertex="1" parent="1">
          <mxGeometry x="1400" y="566" width="100" height="100" as="geometry" />
        </mxCell>
        <mxCell id="D5Iztg6HRzffPRHHJvHE-70" style="edgeStyle=orthogonalEdgeStyle;rounded=0;orthogonalLoop=1;jettySize=auto;html=1;entryX=0.5;entryY=0;entryDx=0;entryDy=0;entryPerimeter=0;" edge="1" parent="1" source="D5Iztg6HRzffPRHHJvHE-66" target="D5Iztg6HRzffPRHHJvHE-69">
          <mxGeometry relative="1" as="geometry" />
        </mxCell>
        <mxCell id="D5Iztg6HRzffPRHHJvHE-71" style="edgeStyle=orthogonalEdgeStyle;rounded=0;orthogonalLoop=1;jettySize=auto;html=1;entryX=0.5;entryY=0;entryDx=0;entryDy=0;" edge="1" parent="1" source="D5Iztg6HRzffPRHHJvHE-72" target="D5Iztg6HRzffPRHHJvHE-74">
          <mxGeometry relative="1" as="geometry" />
        </mxCell>
        <mxCell id="D5Iztg6HRzffPRHHJvHE-72" value="Dashbpard User" style="rounded=1;whiteSpace=wrap;html=1;absoluteArcSize=1;arcSize=14;strokeWidth=2;" vertex="1" parent="1">
          <mxGeometry x="1387" y="696" width="126" height="60" as="geometry" />
        </mxCell>
        <mxCell id="D5Iztg6HRzffPRHHJvHE-73" style="edgeStyle=orthogonalEdgeStyle;rounded=0;orthogonalLoop=1;jettySize=auto;html=1;" edge="1" parent="1" source="D5Iztg6HRzffPRHHJvHE-74">
          <mxGeometry relative="1" as="geometry">
            <mxPoint x="1450" y="906" as="targetPoint" />
          </mxGeometry>
        </mxCell>
        <mxCell id="D5Iztg6HRzffPRHHJvHE-74" value="" style="verticalLabelPosition=bottom;verticalAlign=top;html=1;shape=process;whiteSpace=wrap;rounded=1;size=0.14;arcSize=6;" vertex="1" parent="1">
          <mxGeometry x="1360" y="786" width="180" height="90" as="geometry" />
        </mxCell>
        <mxCell id="D5Iztg6HRzffPRHHJvHE-75" value="1. Peminjaman atau pengembalian" style="text;strokeColor=none;align=left;fillColor=none;html=1;verticalAlign=middle;whiteSpace=wrap;rounded=0;" vertex="1" parent="1">
          <mxGeometry x="1387" y="796" width="123" height="70" as="geometry" />
        </mxCell>
        <mxCell id="D5Iztg6HRzffPRHHJvHE-76" value="Ya" style="text;strokeColor=none;align=center;fillColor=none;html=1;verticalAlign=middle;whiteSpace=wrap;rounded=0;" vertex="1" parent="1">
          <mxGeometry x="1453" y="656" width="60" height="30" as="geometry" />
        </mxCell>
        <mxCell id="D5Iztg6HRzffPRHHJvHE-77" value="Tidak" style="text;strokeColor=none;align=center;fillColor=none;html=1;verticalAlign=middle;whiteSpace=wrap;rounded=0;" vertex="1" parent="1">
          <mxGeometry x="1570" y="556" width="60" height="30" as="geometry" />
        </mxCell>
        <mxCell id="D5Iztg6HRzffPRHHJvHE-78" style="edgeStyle=orthogonalEdgeStyle;rounded=0;orthogonalLoop=1;jettySize=auto;html=1;entryX=1;entryY=0.5;entryDx=0;entryDy=0;" edge="1" parent="1" target="D5Iztg6HRzffPRHHJvHE-74">
          <mxGeometry relative="1" as="geometry">
            <mxPoint x="1580" y="831" as="sourcePoint" />
          </mxGeometry>
        </mxCell>
        <mxCell id="D5Iztg6HRzffPRHHJvHE-79" value="&lt;font style=&quot;font-size: 30px;&quot;&gt;User&lt;/font&gt;" style="text;strokeColor=none;align=center;fillColor=none;html=1;verticalAlign=middle;whiteSpace=wrap;rounded=0;" vertex="1" parent="1">
          <mxGeometry x="1420" y="188" width="60" height="30" as="geometry" />
        </mxCell>
        <mxCell id="D5Iztg6HRzffPRHHJvHE-80" value="" style="verticalLabelPosition=bottom;verticalAlign=top;html=1;shape=mxgraph.flowchart.on-page_reference;" vertex="1" parent="1">
          <mxGeometry x="1420" y="906" width="60" height="60" as="geometry" />
        </mxCell>
        <mxCell id="D5Iztg6HRzffPRHHJvHE-81" value="E" style="text;strokeColor=none;align=center;fillColor=none;html=1;verticalAlign=middle;whiteSpace=wrap;rounded=0;" vertex="1" parent="1">
          <mxGeometry x="1420" y="921" width="60" height="30" as="geometry" />
        </mxCell>
        <mxCell id="D5Iztg6HRzffPRHHJvHE-82" value="" style="verticalLabelPosition=bottom;verticalAlign=top;html=1;shape=mxgraph.flowchart.on-page_reference;" vertex="1" parent="1">
          <mxGeometry x="1580" y="801" width="60" height="60" as="geometry" />
        </mxCell>
        <mxCell id="D5Iztg6HRzffPRHHJvHE-83" value="F" style="text;strokeColor=none;align=center;fillColor=none;html=1;verticalAlign=middle;whiteSpace=wrap;rounded=0;" vertex="1" parent="1">
          <mxGeometry x="1580" y="816" width="60" height="30" as="geometry" />
        </mxCell>
        <mxCell id="D5Iztg6HRzffPRHHJvHE-84" value="" style="verticalLabelPosition=bottom;verticalAlign=top;html=1;shape=mxgraph.flowchart.on-page_reference;" vertex="1" parent="1">
          <mxGeometry x="1810" y="256" width="60" height="60" as="geometry" />
        </mxCell>
        <mxCell id="D5Iztg6HRzffPRHHJvHE-85" value="E" style="text;strokeColor=none;align=center;fillColor=none;html=1;verticalAlign=middle;whiteSpace=wrap;rounded=0;" vertex="1" parent="1">
          <mxGeometry x="1810" y="271" width="60" height="30" as="geometry" />
        </mxCell>
        <mxCell id="D5Iztg6HRzffPRHHJvHE-86" style="edgeStyle=orthogonalEdgeStyle;rounded=0;orthogonalLoop=1;jettySize=auto;html=1;entryX=0.5;entryY=0;entryDx=0;entryDy=0;" edge="1" parent="1">
          <mxGeometry relative="1" as="geometry">
            <mxPoint x="1840" y="317" as="sourcePoint" />
            <mxPoint x="1840" y="367" as="targetPoint" />
          </mxGeometry>
        </mxCell>
        <mxCell id="D5Iztg6HRzffPRHHJvHE-87" style="edgeStyle=orthogonalEdgeStyle;rounded=0;orthogonalLoop=1;jettySize=auto;html=1;entryX=0;entryY=0.5;entryDx=0;entryDy=0;" edge="1" parent="1" source="D5Iztg6HRzffPRHHJvHE-88" target="D5Iztg6HRzffPRHHJvHE-93">
          <mxGeometry relative="1" as="geometry" />
        </mxCell>
        <mxCell id="D5Iztg6HRzffPRHHJvHE-88" value="&lt;font style=&quot;font-size: 11px;&quot;&gt;Peminjaman&amp;nbsp;&lt;/font&gt;&lt;span style=&quot;font-size: 11px; background-color: transparent; color: light-dark(rgb(0, 0, 0), rgb(255, 255, 255));&quot;&gt;atau pengembalian&lt;/span&gt;" style="strokeWidth=2;html=1;shape=mxgraph.flowchart.decision;whiteSpace=wrap;" vertex="1" parent="1">
          <mxGeometry x="1790" y="370" width="100" height="100" as="geometry" />
        </mxCell>
        <mxCell id="D5Iztg6HRzffPRHHJvHE-89" style="edgeStyle=orthogonalEdgeStyle;rounded=0;orthogonalLoop=1;jettySize=auto;html=1;entryX=0.5;entryY=0;entryDx=0;entryDy=0;entryPerimeter=0;" edge="1" parent="1" source="D5Iztg6HRzffPRHHJvHE-88">
          <mxGeometry relative="1" as="geometry">
            <mxPoint x="1840" y="516" as="targetPoint" />
          </mxGeometry>
        </mxCell>
        <mxCell id="D5Iztg6HRzffPRHHJvHE-90" value="Tidak" style="text;strokeColor=none;align=center;fillColor=none;html=1;verticalAlign=middle;whiteSpace=wrap;rounded=0;" vertex="1" parent="1">
          <mxGeometry x="1840" y="476" width="60" height="30" as="geometry" />
        </mxCell>
        <mxCell id="D5Iztg6HRzffPRHHJvHE-91" value="Ya" style="text;strokeColor=none;align=center;fillColor=none;html=1;verticalAlign=middle;whiteSpace=wrap;rounded=0;" vertex="1" parent="1">
          <mxGeometry x="1880" y="426" width="60" height="30" as="geometry" />
        </mxCell>
        <mxCell id="D5Iztg6HRzffPRHHJvHE-92" style="edgeStyle=orthogonalEdgeStyle;rounded=0;orthogonalLoop=1;jettySize=auto;html=1;entryX=0;entryY=0.5;entryDx=0;entryDy=0;" edge="1" parent="1" source="D5Iztg6HRzffPRHHJvHE-93" target="D5Iztg6HRzffPRHHJvHE-94">
          <mxGeometry relative="1" as="geometry" />
        </mxCell>
        <mxCell id="D5Iztg6HRzffPRHHJvHE-93" value="Page peminjaman" style="rounded=1;whiteSpace=wrap;html=1;absoluteArcSize=1;arcSize=14;strokeWidth=2;" vertex="1" parent="1">
          <mxGeometry x="1940" y="390" width="126" height="60" as="geometry" />
        </mxCell>
        <mxCell id="D5Iztg6HRzffPRHHJvHE-94" value="CREATE, READ Peminjaman &amp;amp; Pengembalian" style="rounded=1;whiteSpace=wrap;html=1;absoluteArcSize=1;arcSize=14;strokeWidth=2;" vertex="1" parent="1">
          <mxGeometry x="2120" y="390" width="126" height="60" as="geometry" />
        </mxCell>
        <mxCell id="D5Iztg6HRzffPRHHJvHE-95" style="edgeStyle=orthogonalEdgeStyle;rounded=0;orthogonalLoop=1;jettySize=auto;html=1;entryX=0;entryY=0.5;entryDx=0;entryDy=0;entryPerimeter=0;" edge="1" parent="1" source="D5Iztg6HRzffPRHHJvHE-94">
          <mxGeometry relative="1" as="geometry">
            <mxPoint x="2290" y="420" as="targetPoint" />
          </mxGeometry>
        </mxCell>
        <mxCell id="D5Iztg6HRzffPRHHJvHE-96" value="" style="verticalLabelPosition=bottom;verticalAlign=top;html=1;shape=mxgraph.flowchart.on-page_reference;" vertex="1" parent="1">
          <mxGeometry x="2290" y="390" width="60" height="60" as="geometry" />
        </mxCell>
        <mxCell id="D5Iztg6HRzffPRHHJvHE-97" value="F" style="text;strokeColor=none;align=center;fillColor=none;html=1;verticalAlign=middle;whiteSpace=wrap;rounded=0;" vertex="1" parent="1">
          <mxGeometry x="2290" y="405" width="60" height="30" as="geometry" />
        </mxCell>
        <mxCell id="D5Iztg6HRzffPRHHJvHE-98" value="Logout" style="rounded=1;whiteSpace=wrap;html=1;absoluteArcSize=1;arcSize=14;strokeWidth=2;" vertex="1" parent="1">
          <mxGeometry x="1777" y="519" width="126" height="60" as="geometry" />
        </mxCell>
        <mxCell id="D5Iztg6HRzffPRHHJvHE-99" value="Selesai" style="strokeWidth=2;html=1;shape=mxgraph.flowchart.terminator;whiteSpace=wrap;" vertex="1" parent="1">
          <mxGeometry x="1770" y="614" width="140" height="60" as="geometry" />
        </mxCell>
        <mxCell id="D5Iztg6HRzffPRHHJvHE-100" style="edgeStyle=orthogonalEdgeStyle;rounded=0;orthogonalLoop=1;jettySize=auto;html=1;entryX=0.5;entryY=0;entryDx=0;entryDy=0;entryPerimeter=0;" edge="1" parent="1" source="D5Iztg6HRzffPRHHJvHE-98" target="D5Iztg6HRzffPRHHJvHE-99">
          <mxGeometry relative="1" as="geometry" />
        </mxCell>
        <mxCell id="D5Iztg6HRzffPRHHJvHE-101" value="&lt;span style=&quot;font-size: 50px;&quot;&gt;&lt;b&gt;FLOWCHART&lt;/b&gt;&lt;/span&gt;" style="text;strokeColor=none;align=center;fillColor=none;html=1;verticalAlign=middle;whiteSpace=wrap;rounded=0;" vertex="1" parent="1">
          <mxGeometry x="460" y="90" width="260" height="190" as="geometry" />
        </mxCell>
        <mxCell id="D5Iztg6HRzffPRHHJvHE-102" style="edgeStyle=orthogonalEdgeStyle;rounded=0;orthogonalLoop=1;jettySize=auto;html=1;entryX=0;entryY=0.5;entryDx=0;entryDy=0;" edge="1" parent="1" source="D5Iztg6HRzffPRHHJvHE-103" target="D5Iztg6HRzffPRHHJvHE-108">
          <mxGeometry relative="1" as="geometry" />
        </mxCell>
        <mxCell id="D5Iztg6HRzffPRHHJvHE-103" value="Report peminjaman" style="strokeWidth=2;html=1;shape=mxgraph.flowchart.decision;whiteSpace=wrap;" vertex="1" parent="1">
          <mxGeometry x="650" y="891" width="100" height="100" as="geometry" />
        </mxCell>
        <mxCell id="D5Iztg6HRzffPRHHJvHE-104" style="edgeStyle=orthogonalEdgeStyle;rounded=0;orthogonalLoop=1;jettySize=auto;html=1;entryX=0.5;entryY=0;entryDx=0;entryDy=0;entryPerimeter=0;" edge="1" parent="1" source="D5Iztg6HRzffPRHHJvHE-103">
          <mxGeometry relative="1" as="geometry">
            <mxPoint x="700" y="1037" as="targetPoint" />
          </mxGeometry>
        </mxCell>
        <mxCell id="D5Iztg6HRzffPRHHJvHE-105" value="Tidak" style="text;strokeColor=none;align=center;fillColor=none;html=1;verticalAlign=middle;whiteSpace=wrap;rounded=0;" vertex="1" parent="1">
          <mxGeometry x="700" y="997" width="60" height="30" as="geometry" />
        </mxCell>
        <mxCell id="D5Iztg6HRzffPRHHJvHE-106" value="Ya" style="text;strokeColor=none;align=center;fillColor=none;html=1;verticalAlign=middle;whiteSpace=wrap;rounded=0;" vertex="1" parent="1">
          <mxGeometry x="740" y="947" width="60" height="30" as="geometry" />
        </mxCell>
        <mxCell id="D5Iztg6HRzffPRHHJvHE-107" style="edgeStyle=orthogonalEdgeStyle;rounded=0;orthogonalLoop=1;jettySize=auto;html=1;entryX=0;entryY=0.5;entryDx=0;entryDy=0;" edge="1" parent="1" source="D5Iztg6HRzffPRHHJvHE-108">
          <mxGeometry relative="1" as="geometry">
            <mxPoint x="980" y="940.9999999999998" as="targetPoint" />
          </mxGeometry>
        </mxCell>
        <mxCell id="D5Iztg6HRzffPRHHJvHE-108" value="Download report peminjaman" style="rounded=1;whiteSpace=wrap;html=1;absoluteArcSize=1;arcSize=14;strokeWidth=2;" vertex="1" parent="1">
          <mxGeometry x="800" y="911" width="126" height="60" as="geometry" />
        </mxCell>
        <mxCell id="D5Iztg6HRzffPRHHJvHE-111" value="" style="verticalLabelPosition=bottom;verticalAlign=top;html=1;shape=mxgraph.flowchart.on-page_reference;" vertex="1" parent="1">
          <mxGeometry x="980" y="911" width="60" height="60" as="geometry" />
        </mxCell>
        <mxCell id="D5Iztg6HRzffPRHHJvHE-112" value="H" style="text;strokeColor=none;align=center;fillColor=none;html=1;verticalAlign=middle;whiteSpace=wrap;rounded=0;" vertex="1" parent="1">
          <mxGeometry x="980" y="926" width="60" height="30" as="geometry" />
        </mxCell>
      </root>
    </mxGraphModel>
  </diagram>
</mxfile>
